<svg version="1.2" xmlns="http://www.w3.org/2000/svg" viewBox="0 0 24 24" width="24" height="24">
	<title>paper-svg</title>
	<style>
		.s0 { fill: #0f0f0f } 
	</style>
	<path fill-rule="evenodd" class="s0" d="m21 16.5c0 1.2-0.9 2.3-2.1 2.5q0.1 0.2 0.1 0.5c0 1.4-1.1 2.5-2.5 2.5h-7.7c-4.3 0-7.8-3.5-7.8-7.8 0-2.6 1.2-5.1 3.2-6.8l5.8-4.7c1.6-1.4 4.1-0.4 4.4 1.8 0.1 0.9-0.2 1.8-0.9 2.4l-1.3 1.1h6.3c1.4 0 2.5 1.1 2.5 2.5q0 0.3-0.1 0.5c1.2 0.2 2.1 1.3 2.1 2.5 0 1.2-0.9 2.3-2.1 2.5q0.1 0.2 0.1 0.5zm0-3c0-0.3-0.2-0.5-0.5-0.5h-8.5c-0.6 0-1-0.4-1-1 0-0.6 0.4-1 1-1h6.5c0.3 0 0.5-0.2 0.5-0.5 0-0.3-0.2-0.5-0.5-0.5h-8.5c-1.1 0-1.6-1.4-0.8-2.1l3-2.6c0.1-0.1 0.2-0.3 0.2-0.6-0.1-0.5-0.7-0.8-1.2-0.5l-5.7 4.7c-1.6 1.3-2.5 3.3-2.5 5.3 0 3.2 2.6 5.8 5.8 5.8h7.7c0.3 0 0.5-0.2 0.5-0.5 0-0.3-0.2-0.5-0.5-0.5h-4.5c-0.6 0-1-0.4-1-1 0-0.6 0.4-1 1-1h6.5c0.3 0 0.5-0.2 0.5-0.5 0-0.3-0.2-0.5-0.5-0.5h-6.5c-0.6 0-1-0.4-1-1 0-0.6 0.4-1 1-1h8.5c0.3 0 0.5-0.2 0.5-0.5z"/>
</svg>