<svg version="1.2" xmlns="http://www.w3.org/2000/svg" viewBox="0 0 24 24" width="24" height="24">
	<title>paper-svg</title>
	<style>
		.s0 { fill: #0f0f0f } 
	</style>
	<path fill-rule="evenodd" class="s0" d="m3.1 16c-1.2-0.2-2.1-1.3-2.1-2.5 0-1.2 0.9-2.3 2.1-2.5q-0.1-0.2-0.1-0.5c0-1.4 1.1-2.5 2.5-2.5h6.3l-1.3-1.1c-0.7-0.6-1-1.5-0.9-2.4 0.3-2.2 2.8-3.2 4.4-1.8l5.8 4.7c2 1.7 3.2 4.2 3.2 6.8 0 4.3-3.5 7.8-7.8 7.8h-7.7c-1.4 0-2.5-1.1-2.5-2.5q0-0.3 0.1-0.5c-1.2-0.2-2.1-1.3-2.1-2.5q0-0.3 0.1-0.5zm0.4-2h8.5c0.6 0 1 0.4 1 1 0 0.6-0.4 1-1 1h-6.5c-0.3 0-0.5 0.2-0.5 0.5 0 0.3 0.2 0.5 0.5 0.5h6.5c0.6 0 1 0.4 1 1 0 0.6-0.4 1-1 1h-4.5c-0.3 0-0.5 0.2-0.5 0.5 0 0.3 0.2 0.5 0.5 0.5h7.7c3.2 0 5.8-2.6 5.8-5.8 0-2-0.9-4-2.5-5.3l-5.7-4.7c-0.5-0.3-1.1 0-1.2 0.5 0 0.3 0.1 0.5 0.2 0.6l3 2.6c0.8 0.7 0.3 2.1-0.8 2.1h-8.5c-0.3 0-0.5 0.2-0.5 0.5 0 0.3 0.2 0.5 0.5 0.5h6.5c0.6 0 1 0.4 1 1 0 0.6-0.4 1-1 1h-8.5c-0.3 0-0.5 0.2-0.5 0.5 0 0.3 0.2 0.5 0.5 0.5z"/>
</svg>