<svg version="1.2" xmlns="http://www.w3.org/2000/svg" viewBox="0 0 24 24" width="24" height="24">
	<title>rock-svg</title>
	<style>
		.s0 { fill: none;stroke: #020202;stroke-miterlimit:10;stroke-width: 1.9 } 
	</style>
	<path fill-rule="evenodd" class="s0" d="m10 6.2q0 1.6 0.6 3.1 0.7 1.5 1.8 2.6 1.1 1.2 2.6 1.8 1.5 0.6 3.2 0.6"/>
	<path class="s0" d="m1.6 20.1c0 1.3 1.1 2.4 2.4 2.4h2.9c1.3 0 2.4-1.1 2.4-2.4 0-1.3-1.1-2.4-2.4-2.4h-2.9c-1.3 0-2.4 1.1-2.4 2.4z"/>
	<path class="s0" d="m0.7 15.3c0 1.4 1 2.4 2.4 2.4h3.8c1.3 0 2.4-1 2.4-2.4 0-1.3-1.1-2.3-2.4-2.3h-3.8c-1.4 0-2.4 1-2.4 2.3z"/>
	<path fill-rule="evenodd" class="s0" d="m9 11.6q-0.1 0.3-0.3 0.5-0.2 0.3-0.5 0.5-0.3 0.2-0.6 0.3-0.4 0.1-0.7 0.1h-3.8c-0.7 0-1.3-0.2-1.8-0.6-0.5-0.5-0.8-1.1-0.8-1.8 0-0.6 0.3-1.3 0.8-1.7 0.5-0.5 1.1-0.7 1.8-0.7h2.2"/>
	<path fill-rule="evenodd" class="s0" d="m6.9 3.4h-3.8c-0.7 0-1.3 0.2-1.8 0.7-0.5 0.4-0.8 1-0.8 1.7 0 0.7 0.3 1.3 0.8 1.7 0.5 0.5 1.1 0.7 1.8 0.7h2.2"/>
	<path fill-rule="evenodd" class="s0" d="m22.6 6.3h-1.9l-0.6-0.8c-2.6-2.5-5.1-4-8.8-4q-0.6 0-1.1 0.1-0.6 0.1-1.2 0.4-0.5 0.2-1 0.5-0.5 0.3-0.9 0.8-0.4 0.4-0.7 0.9-0.4 0.4-0.6 1-0.2 0.5-0.3 1.1-0.2 0.6-0.2 1.2v2.2q0 0.4 0.2 0.9 0.2 0.4 0.5 0.7 0.4 0.3 0.8 0.5 0.4 0.2 0.9 0.2 0.4 0 0.9-0.2 0.4-0.2 0.7-0.5 0.4-0.3 0.5-0.7 0.2-0.5 0.2-0.9v-3.5"/>
	<path fill-rule="evenodd" class="s0" d="m22.6 17.7h-1.9l-0.6 0.8c-2.6 2.6-5.1 4-8.8 4h-4.8"/>
</svg>