<svg version="1.2" xmlns="http://www.w3.org/2000/svg" viewBox="0 0 512 512" width="512" height="512">
	<title>scissors-svg</title>
	<style>
		.s0 { fill: #000000 } 
	</style>
	<path fill-rule="evenodd" class="s0" d="m191 395.1c-21.7-13.7-34-38.7-30.4-65h-87.6c-40.8 0-74-32.8-74-73.1 0-40.3 33.2-73.1 74-73.1l94 9.1-78.9-18.7c-38.3-14.7-57-57.4-41.9-95.1 15-37.5 57.8-55.8 95.6-41.2l145 55.8c24.9-30.6 57.8-44 92.2-24.8l98 54.9c21 11.7 34 33.8 34 57.7v205.7c0 30.7-21.4 57.5-51.8 64.5l-119 27.5c-5 1.1-10.1 1.7-15.2 1.7h-70c-45 0-77.3-43.3-64-85.9zm134 37.9q0.6 0 1.1 0 0.6-0.1 1.1-0.1 0.6-0.1 1.1-0.2 0.6-0.1 1.1-0.2l119-27.4c8.6-2 14.6-9.3 14.6-17.8v-205.7c0-6.5-3.6-12.6-9.4-15.8l-98-54.9c-8.2-4.5-18.7-2.6-24.5 4.5l-21.8 26.7q-1.6 1.9-3.7 3.3-2.1 1.4-4.6 2-2.4 0.7-5 0.5-2.5-0.1-4.8-1l-166.6-64.1c-32.6-12.6-50.8 34.6-19.2 46.7l155.3 59.8q2.3 0.9 4.2 2.4 1.9 1.5 3.3 3.5 1.4 2 2.1 4.3 0.7 2.3 0.7 4.7v11.7c0 8.8-7.2 16-16 16h-182c-34.4 0-34.4 50.2 0 50.2h182c8.8 0 16 7.2 16 16v6.9c0 8.8-7.2 16-16 16h-28c-25.1 0-25.2 36.6 0 36.6h28c8.8 0 16 7.1 16 16v6.8c0 8.9-7.2 16-16 16-25.1 0-25.2 36.6 0 36.6 0 0 70 0 70 0z"/>
</svg>